M48
; DRILL file {KiCad (5.1.6)-1} date 02/01/21 23:58:18
; FORMAT={-:-/ absolute / inch / decimal}
; #@! TF.CreationDate,2021-02-01T23:58:18+01:00
; #@! TF.GenerationSoftware,Kicad,Pcbnew,(5.1.6)-1
; #@! TF.FileFunction,Plated,1,2,PTH
FMAT,2
INCH
T1C0.0276
T2C0.0315
T3C0.0354
T4C0.0433
T5C0.0520
%
G90
G05
T1
X4.25Y-3.85
X4.25Y-4.15
X4.65Y-3.45
X4.95Y-3.45
X4.5Y-3.25
X4.5Y-3.55
X4.05Y-3.85
X4.05Y-4.15
T2
X5.2Y-3.95
X5.7Y-3.95
X4.75Y-3.15
X4.75Y-3.2484
X4.0Y-3.3
X4.1Y-3.4
X4.2Y-3.3
X5.2516Y-2.95
X5.35Y-2.95
X4.45Y-3.85
X4.45Y-3.95
X4.45Y-4.05
X4.45Y-4.15
X4.75Y-3.85
X4.75Y-3.95
X4.75Y-4.05
X4.75Y-4.15
X5.0Y-4.2016
X5.0Y-4.3
T3
X5.5Y-3.25
X5.5Y-3.55
T4
X6.05Y-3.95
X6.05Y-4.05
X6.05Y-4.15
X4.9Y-2.6
X5.0Y-2.6
X5.1Y-2.6
T5
X4.2Y-2.6
X4.2Y-2.7969
X6.05Y-3.25
X6.05Y-3.4469
T0
M30
