%TF.GenerationSoftware,KiCad,Pcbnew,(5.1.6)-1*%
%TF.CreationDate,2021-02-01T23:58:11+01:00*%
%TF.ProjectId,TEST,54455354-2e6b-4696-9361-645f70636258,rev?*%
%TF.SameCoordinates,Original*%
%TF.FileFunction,Soldermask,Top*%
%TF.FilePolarity,Negative*%
%FSLAX46Y46*%
G04 Gerber Fmt 4.6, Leading zero omitted, Abs format (unit mm)*
G04 Created by KiCad (PCBNEW (5.1.6)-1) date 2021-02-01 23:58:11*
%MOMM*%
%LPD*%
G01*
G04 APERTURE LIST*
%ADD10C,1.540000*%
%ADD11R,1.700000X1.700000*%
%ADD12C,1.700000*%
%ADD13R,1.900000X1.900000*%
%ADD14O,1.900000X1.900000*%
%ADD15R,4.060000X2.080000*%
%ADD16O,4.060000X2.080000*%
%ADD17O,2.100000X2.005000*%
%ADD18R,2.100000X2.005000*%
%ADD19O,1.500000X1.500000*%
%ADD20C,1.500000*%
%ADD21O,1.700000X1.700000*%
%ADD22R,2.005000X2.100000*%
%ADD23O,2.005000X2.100000*%
G04 APERTURE END LIST*
D10*
%TO.C,RV1*%
X101600000Y-83820000D03*
X104140000Y-86360000D03*
X106680000Y-83820000D03*
%TD*%
D11*
%TO.C,C1*%
X135890000Y-74930000D03*
D12*
X133390000Y-74930000D03*
%TD*%
%TO.C,C2*%
X127000000Y-109220000D03*
X127000000Y-106720000D03*
%TD*%
%TO.C,C3*%
X120650000Y-82510000D03*
D11*
X120650000Y-80010000D03*
%TD*%
D13*
%TO.C,D1*%
X139700000Y-82550000D03*
D14*
X139700000Y-90170000D03*
%TD*%
D15*
%TO.C,J1*%
X106680000Y-71040000D03*
D16*
X106680000Y-66040000D03*
%TD*%
%TO.C,J2*%
X153670000Y-87550000D03*
D15*
X153670000Y-82550000D03*
%TD*%
D17*
%TO.C,Q1*%
X153670000Y-105410000D03*
X153670000Y-102870000D03*
D18*
X153670000Y-100330000D03*
%TD*%
D19*
%TO.C,R1*%
X114300000Y-90170000D03*
D20*
X114300000Y-82550000D03*
%TD*%
%TO.C,R2*%
X118110000Y-87630000D03*
D19*
X125730000Y-87630000D03*
%TD*%
D20*
%TO.C,R3*%
X107950000Y-105410000D03*
D19*
X107950000Y-97790000D03*
%TD*%
%TO.C,R4*%
X102870000Y-105410000D03*
D20*
X102870000Y-97790000D03*
%TD*%
D12*
%TO.C,R5*%
X144780000Y-100330000D03*
D21*
X132080000Y-100330000D03*
%TD*%
D22*
%TO.C,U1*%
X129540000Y-66040000D03*
D23*
X127000000Y-66040000D03*
X124460000Y-66040000D03*
%TD*%
D11*
%TO.C,U2*%
X113030000Y-97790000D03*
D21*
X120650000Y-105410000D03*
X113030000Y-100330000D03*
X120650000Y-102870000D03*
X113030000Y-102870000D03*
X120650000Y-100330000D03*
X113030000Y-105410000D03*
X120650000Y-97790000D03*
%TD*%
M02*
